<?xml version="1.0" encoding="utf-8"?><!-- Uploaded to: SVG Repo, www.svgrepo.com, Generator: SVG Repo Mixer Tools -->
<svg fill="#000000" width="800px" height="800px" viewBox="0 0 24 24" id="agenda" data-name="Flat Color" xmlns="http://www.w3.org/2000/svg" class="icon flat-color"><path id="secondary" d="M22,7V9a1,1,0,0,1-1,1H19a1,1,0,0,1-1-1V7a1,1,0,0,1,1-1h2A1,1,0,0,1,22,7Zm-1,5H19a1,1,0,0,0-1,1v2a1,1,0,0,0,1,1h2a1,1,0,0,0,1-1V13A1,1,0,0,0,21,12Z" style="fill: rgb(44, 169, 188);"></path><rect id="primary" x="3" y="2" width="17" height="20" rx="2" style="fill: rgb(0, 0, 0);"></rect><path id="secondary-2" data-name="secondary" d="M13,2H7V9a1,1,0,0,0,1.45.89L10,9.12l1.55.77A1,1,0,0,0,12,10a1,1,0,0,0,.53-.15A1,1,0,0,0,13,9Z" style="fill: rgb(44, 169, 188);"></path></svg>